<svg width="19" height="19" xmlns="http://www.w3.org/2000/svg">

 <g>
  <title>background</title>
  <rect fill="none" id="canvas_background" height="402" width="582" y="-1" x="-1"/>
 </g>
 <g>
  <title>Layer 1</title>
  <path id="svg_2" fill="#231F20" d="m8.44,7.25c-0.092,0.092 -0.163,0.197 -0.225,0.307l-0.041,-0.041l-0.025,0.174c-0.1,0.235 -0.135,0.493 -0.107,0.752l-0.399,2.796l2.797,-0.399c0.259,0.028 0.517,-0.007 0.752,-0.107l0.174,-0.024l-0.041,-0.041c0.109,-0.062 0.215,-0.133 0.307,-0.225l5.053,-5.053l-3.191,-3.191l-5.054,5.052z"/>
  <path id="svg_3" fill="#231F20" d="m18.183,1.568l-0.87,-0.87c-0.641,-0.641 -1.637,-0.684 -2.225,-0.097l-0.797,0.797l3.191,3.191l0.797,-0.798c0.588,-0.586 0.545,-1.582 -0.096,-2.223z"/>
  <path id="svg_4" fill="#231F20" d="m15,9.696l0,7.304l-13,0l0,-15l8.953,0l1.523,-1.42c0.162,-0.161 0.353,-0.221 0.555,-0.293c0.043,-0.119 0.104,-0.18 0.176,-0.287l-13.207,0l0,19l17,0l0,-11.072l-2,1.768z"/>
 </g>
</svg>